<mxfile host="app.diagrams.net" modified="2023-08-21T18:41:49.253Z" agent="Mozilla/5.0 (Windows NT 10.0; Win64; x64; rv:109.0) Gecko/20100101 Firefox/116.0" version="21.6.8" etag="jjtdDtR2KRq6MByHUgUD" type="github">
  <diagram name="PÃ¡gina-1" id="knO_kRb-unKkhM4I1SIb">
    <mxGraphModel>
      <root>
        <mxCell id="0" />
        <mxCell id="1" parent="0" />
      </root>
    </mxGraphModel>
  </diagram>
</mxfile>
